<?xml version="1.0" encoding="utf-8"?>
<!-- Generated by IcoMoon.io -->
<!DOCTYPE svg PUBLIC "-//W3C//DTD SVG 1.1//EN" "http://www.w3.org/Graphics/SVG/1.1/DTD/svg11.dtd">

<svg version="1.1" xmlns="http://www.w3.org/2000/svg" xmlns:xlink="http://www.w3.org/1999/xlink" width="171" height="74" viewBox="0 0 171 74">
<defs>
<g id="icon-time">
	<path class="path1" d="M16 3.5c-7.181 0-13 5.82-13 13s5.819 13 13 13c7.179 0 13-5.82 13-13s-5.82-13-13-13zM15.895 27.027c-5.799 0-10.5-4.701-10.5-10.5s4.701-10.5 10.5-10.5c5.798 0 10.5 4.701 10.5 10.5s-4.702 10.5-10.5 10.5zM18.93 17.131h-2.98v-5.032c0-0.546-0.443-0.99-0.989-0.99s-0.99 0.443-0.99 0.99v6.021c0 0.547 0.443 0.989 0.99 0.989h3.969c0.547 0 0.99-0.442 0.99-0.989 0-0.546-0.443-0.989-0.99-0.989z"></path>
</g>
<g id="icon-eye">
	<path class="path1" d="M17.162 4.341c-10.562 0-17.162 11.659-17.162 11.659s6.537 11.659 17.162 11.659c9.938 0 17.481-11.659 17.481-11.659s-7.481-11.659-17.481-11.659zM17.256 21.251c-2.894 0-5.238-2.345-5.238-5.238s2.345-5.239 5.238-5.239 5.239 2.346 5.239 5.239-2.346 5.238-5.239 5.238zM17.288 13.394c-1.44 0-2.607 1.168-2.607 2.607s1.167 2.607 2.607 2.607 2.607-1.167 2.607-2.607c0.001-1.439-1.166-2.607-2.607-2.607z"></path>
</g>
<g id="icon-graduate">
	<path class="path1" d="M32.639 17.561c0 0-4.592-4.682-10.92-4.682-6.183 0-12.295 4.682-12.295 4.682l-3.433-1.433v4.204c0.541 0.184 0.937 0.682 0.937 1.285 0 0.609-0.404 1.108-0.953 1.288l1.015 2.831h-2.996l1.024-2.855c-0.492-0.209-0.836-0.695-0.836-1.264 0-0.557 0.334-1.031 0.811-1.247v-4.659l-4.993-2.082 21.969-9.861 20.156 9.985-9.486 3.808zM21.469 15.251c6.366 0 9.486 3.37 9.486 3.37v6.99c0 0-3.245 2.621-9.985 2.621s-8.987-2.621-8.987-2.621v-6.99c0 0 3.12-3.37 9.486-3.37zM21.344 26.734c4.412 0 7.989-0.895 7.989-1.997s-3.577-1.997-7.989-1.997-7.988 0.895-7.988 1.997 3.576 1.997 7.988 1.997z"></path>
</g>
<g id="icon-medal">
	<path class="path1" d="M9.193 20.037c-1.25 0-1.416-0.584-1.416-0.584l-4.875 9.58 3.909-0.438 2.162 3.25c0 0 4.5-9.393 4.5-9.33-2.33-0.056-1.405-2.415-4.28-2.478zM20.182 21.065c0.607-1.020 1.504-1.537 2.691-1.553s1.787-0.617 1.803-1.804c0.016-1.186 0.533-2.083 1.553-2.689s1.24-1.428 0.66-2.463-0.58-2.071 0-3.106 0.359-1.856-0.66-2.463-1.537-1.503-1.553-2.69c-0.016-1.186-0.617-1.787-1.803-1.803-1.188-0.016-2.084-0.533-2.691-1.553-0.605-1.020-1.428-1.24-2.463-0.66s-2.070 0.58-3.105 0-1.856-0.359-2.463 0.66c-0.607 1.020-1.503 1.537-2.69 1.553s-1.787 0.618-1.803 1.804c-0.016 1.187-0.533 2.083-1.553 2.69s-1.24 1.428-0.66 2.463c0.58 1.035 0.58 2.071 0 3.106s-0.359 1.856 0.66 2.463c1.020 0.607 1.537 1.504 1.553 2.689 0.016 1.187 0.617 1.788 1.803 1.804s2.083 0.533 2.69 1.553c0.606 1.020 1.428 1.239 2.463 0.66s2.070-0.579 3.105 0 1.857 0.359 2.463-0.661zM17.518 16.004h-1.781v-6.726c-0.651 0.609-1.42 1.059-2.305 1.351v-1.617c0.465-0.152 0.971-0.44 1.517-0.865s0.92-0.92 1.123-1.486h1.446v9.343zM24.16 19.828c-3.562 0.375-2.838 1.256-3.65 1.943-0.938 1-2.107 0.807-2.107 0.807l5.5 9.455 1.35-3.5 3.846 0.5-4.939-9.205z"></path>
</g>
<g id="icon-tools">
	<path class="path1" d="M27.783 7.936c0.959 2.313 0.502 5.074-1.379 6.955-2.071 2.071-5.201 2.395-7.634 1.022l-1.759 1.921 1.255 1.26 0.75-0.75c0.383-0.384 1.005-0.384 1.388 0l6.082 6.144c0.384 0.383 0.384 1.005 0 1.388l-2.776 2.776c-0.383 0.384-1.005 0.384-1.388 0l-6.082-6.144c-0.384-0.383-0.384-1.005 0-1.388l0.685-0.685-1.196-1.199-8.411 9.189c-0.767 0.767-2.010 0.767-2.776 0l-0.694-0.694c-0.767-0.767-0.767-2.010 0-2.776l9.582-8.025-6.364-6.381-2.010-0.001-2.326-3.74 1.872-1.875 3.825 2.341 0.025 1.968 6.438 6.463 1.873-1.568c-1.831-2.496-1.64-6.012 0.616-8.268 1.872-1.872 4.618-2.337 6.925-1.396l-4.124 4.067 3.471 3.471 4.132-4.075zM6.15 25.934c-0.383-0.383-1.004-0.383-1.388 0-0.384 0.384-0.384 1.005 0 1.389 0.384 0.383 1.005 0.383 1.388 0 0.384-0.385 0.384-1.006 0-1.389z"></path>
</g>
<g id="icon-comments">
	<path class="path1" d="M25.132 13.165c0-5.165-5.627-9.352-12.566-9.352s-12.566 4.187-12.566 9.352c0 3.104 2.032 5.854 5.16 7.555-0.009 0.027-2.492 4.545-2.492 4.545s7.582-2.892 7.603-2.904c0.744 0.103 1.511 0.155 2.295 0.155 6.939 0 12.566-4.187 12.566-9.351zM34.385 16.087c0-5.164-5.297-9.314-11.031-9.351 8.22 8.188-1.461 16.912-9.351 16.912 0 0 0.877 1.79 7.816 1.79 0.783 0 1.551-0.054 2.295-0.156 0.021 0.014 7.604 2.904 7.604 2.904s-2.484-4.517-2.492-4.544c3.127-1.701 5.159-4.452 5.159-7.555z"></path>
</g>
<g id="icon-profile">
	<path class="path1" d="M28 9h-1.958v-2.938l-4.042-0.062 0.021 3h-12.146l0.083-3-3.958 0.062v3l-2-0.062c-1.104 0-2 0.896-2 2v14c0 1.104 0.896 2 2 2h24c1.104 0 2-0.896 2-2v-14c0-1.104-0.896-2-2-2zM23 7h2v4h-2v-4zM10 13.812c1.208 0 2.188 1.287 2.188 2.875s-0.98 2.875-2.188 2.875-2.188-1.287-2.188-2.875 0.98-2.875 2.188-2.875zM7 7h2v4h-2v-4zM5.667 22.948c0 0 0.237-1.902 0.776-2.261s2.090-0.598 2.090-0.598 1.006 1.075 1.434 1.075c0.427 0 1.433-1.075 1.433-1.075s1.552 0.238 2.091 0.598c0.633 0.422 0.791 2.261 0.791 2.261h-8.615zM26 22h-9v-1h9v1zM26 20h-9v-1h9v1zM26 18h-9v-1h9v1zM26 16h-9v-1h9v1z"></path>
</g>
<g id="icon-envelope">
	<path class="path1" d="M20.139 18.934l9.787-7.999-13.926-9.833-13.89 9.833 9.824 8.032 8.205-0.033zM12.36 19.936l-9.279 10.962h25.876l-9.363-10.9-7.234-0.062zM20.705 19.803l9.291 11.084v-18.952l-9.291 7.868zM2.004 11.935v18.952l9.291-11.084-9.291-7.868z"></path>
</g>
</defs>

<g fill="#444444">
	<use xlink:href="#icon-time" transform="translate(0 0)"></use>
	<use xlink:href="#icon-eye" transform="translate(42 0)"></use>
	<use xlink:href="#icon-graduate" transform="translate(87 0)"></use>
	<use xlink:href="#icon-medal" transform="translate(139 0)"></use>
	<use xlink:href="#icon-tools" transform="translate(0 42)"></use>
	<use xlink:href="#icon-comments" transform="translate(42 42)"></use>
	<use xlink:href="#icon-profile" transform="translate(87 42)"></use>
	<use xlink:href="#icon-envelope" transform="translate(139 42)"></use>
</g>

</svg>
